<svg version="1.1" xmlns="http://www.w3.org/2000/svg" xmlns:xlink="http://www.w3.org/1999/xlink" width="806.44034" height="356.0232" viewBox="0,0,806.44034,356.0232"><g transform="translate(156.93786,-8.96362)"><g stroke-miterlimit="10"><path d="M-156.93786,219.6753v-10h1.44861v10z" fill="none" stroke="none" stroke-width="0" stroke-linecap="butt"/><path d="M0.1086,359.98684v-214c0,0 205.72758,-46.84569 310.93275,-70.80168c97.67619,-22.24159 287.38389,-56.51191 324.03009,-63.08682c4.0318,-0.72337 6.12945,-3.57255 6.21089,-1.1115c0.08145,2.46104 -1.77982,135 -1.77982,135v214z" fill="#483b00" stroke="none" stroke-width="0" stroke-linecap="butt"/><path d="M597.21818,361.35841c-92.38238,1.48458 -601.21467,3.62842 -601.21467,3.62842c0,0 -3.12348,-4.77693 -0.23147,-9.00498c1.47137,-2.15112 -0.65605,-7.07159 1.02311,-11.08229c2.04692,-4.88908 -5.22269,-14.91222 -5.22269,-17.02785c0,-8.1378 9.58077,-9.38488 9.58077,-9.38488c0,0 -20.08664,-104.9999 -8.09049,-141.09517c5.55564,-16.71637 42.69634,19.05085 47.45808,19.03983c37.65881,-0.08714 144.85206,-33.25578 212.82199,2.55859c24.62451,12.97502 89.0959,-92.18478 109.42961,-72.63844c11.20507,10.77118 17.98951,-30.58353 28.9426,-30.60888c16.12012,-0.0373 233.55657,-44.12624 233.55657,-44.12624c0,0 11.79707,-32.23064 13.417,-14.41003c3.98766,43.8677 10.70566,279.78035 10.70566,279.78035c0,0 -7.20961,9.36283 -7.20961,15.38488c0,3.61002 4.37087,5.63919 5.85297,10.24963c2.03392,6.32703 1.35664,14.86549 1.35664,14.86549c0,0 -24.3813,3.4249 -52.17608,3.87157z" fill="#626262" stroke="none" stroke-width="0" stroke-linecap="butt"/><path d="M235.64118,292.5066c0,4.97056 5.07513,12 -1,12c-6.07513,0 -21,-7.02943 -21,-12c0,-4.97056 5.92487,-6 12,-6c6.07513,0 10,1.02943 10,6z" fill="#525252" stroke="none" stroke-width="0" stroke-linecap="butt"/><path d="M450.64118,285.7566c0,1.65105 0.7175,18.12408 -5.9785,19.08649c-5.06322,0.72774 -16.5064,-13.83649 -23.5215,-13.83649c-4.13313,0 -4.06774,-1.65127 -7.63855,-1.92439c-10.50499,-0.8035 -21.86145,-1.16167 -21.86145,-3.3256c0,-2.8995 13.2076,-5.25 29.5,-5.25c16.2924,0 29.5,2.3505 29.5,5.25z" fill="#525252" stroke="#000000" stroke-width="0" stroke-linecap="butt"/><path d="M628.64118,308.2566c0,2.8995 -7.61116,5.25 -17,5.25c-9.38884,0 -17,-2.3505 -17,-5.25c0,-1.62402 -2.61225,-9.07581 1.13822,-10.03882c2.94555,-0.75633 11.73167,4.78882 15.86178,4.78882c9.38884,0 17,2.3505 17,5.25z" fill="#525252" stroke="#000000" stroke-width="0" stroke-linecap="butt"/><path d="M620.64118,197.7566c0,1.65105 -6.2825,15.12407 -12.9785,16.08649c-5.06322,0.72774 -13.5064,-5.83649 -20.5215,-5.83649c-4.13313,0 -14.06774,-3.65127 -17.63855,-3.92439c-10.50499,-0.8035 -14.86145,-7.16168 -14.86145,-9.32561c0,-2.8995 13.2076,-5.25 29.5,-5.25c6.32497,0 41.18502,-12.64575 45.98788,-12.04266c7.56878,0.9504 -9.48788,18.51879 -9.48788,20.29266z" fill="#525252" stroke="#000000" stroke-width="0" stroke-linecap="butt"/><path d="M132.64118,217.7566c0,1.65105 8.7175,40.12408 2.0215,41.08649c-5.06322,0.72774 -79.5064,16.16351 -86.5215,16.16351c-4.13313,0 14.93226,-47.65127 11.36145,-47.92439c-10.50499,-0.8035 14.13855,-7.16167 14.13855,-9.3256c0,-2.8995 13.2076,-5.25 29.5,-5.25c16.2924,0 29.5,2.3505 29.5,5.25z" fill="#525252" stroke="#000000" stroke-width="0" stroke-linecap="butt"/><path d="M461.64118,147.7566c0,1.65105 0.7175,18.12408 -5.9785,19.08649c-5.06322,0.72774 -16.5064,-13.83649 -23.5215,-13.83649c-4.13313,0 -4.06774,-1.65127 -7.63855,-1.92439c-10.50499,-0.8035 36.13855,-25.16167 36.13855,-27.3256c0,-2.8995 0.2076,15.75 16.5,15.75c16.2924,0 -15.5,5.3505 -15.5,8.25z" fill="#525252" stroke="#000000" stroke-width="0" stroke-linecap="butt"/><path d="M36.64117,313.5066c0,4.97056 5.07513,12 -1,12c-1.79757,0 -4.36996,-0.61544 -7.10126,-1.61088c-3.11874,-1.13664 -6.44468,-2.76874 -9.06086,-4.54577c-2.83594,-1.9263 -4.83788,-4.0229 -4.83788,-5.84335c0,-4.97056 4.92487,-6 11,-6c0.8961,0 10.74541,-0.9776 11.54225,-0.92346c4.60535,0.3129 -0.54225,2.68607 -0.54225,6.92346z" fill="#525252" stroke="none" stroke-width="0" stroke-linecap="butt"/><path d="M-0.88436,147.45655c0,0 432.90169,-105.60634 637.98473,-136.49292" fill="none" stroke="#004e0e" stroke-width="4" stroke-linecap="round"/></g></g></svg>