<svg version="1.1" xmlns="http://www.w3.org/2000/svg" xmlns:xlink="http://www.w3.org/1999/xlink" width="18.9464" height="18.94644" viewBox="0,0,18.9464,18.94644"><g transform="translate(-310.5268,-170.52678)"><g fill="none" stroke="#ffffff" stroke-miterlimit="10"><path d="M311.0268,180c0,-4.95577 4.01744,-8.97322 8.9732,-8.97322c4.95577,0 8.9732,4.01745 8.9732,8.97322c0,4.95577 -4.01744,8.97322 -8.9732,8.97322c-4.95577,0 -8.9732,-4.01745 -8.9732,-8.97322z"/><path d="M315.51341,180c0,-2.47788 2.00871,-4.48659 4.48659,-4.48659c2.47788,0 4.48659,2.00871 4.48659,4.48659c0,2.47788 -2.00871,4.48659 -4.48659,4.48659c-2.47788,0 -4.48659,-2.00871 -4.48659,-4.48659z"/><path d="M319.57559,180c0,-0.23439 0.19002,-0.42441 0.42441,-0.42441c0.23439,0 0.42441,0.19002 0.42441,0.42441c0,0.23439 -0.19002,0.42441 -0.42441,0.42441c-0.23439,0 -0.42441,-0.19002 -0.42441,-0.42441z"/></g></g></svg>