<svg version="1.1" xmlns="http://www.w3.org/2000/svg" xmlns:xlink="http://www.w3.org/1999/xlink" width="76.35" height="6.90183" viewBox="0,0,76.35,6.90183"><g transform="translate(-281.825,-176.54909)"><g fill="#ffffff" stroke="#ffffff" stroke-miterlimit="10"><path d="M346.7839,179.8717c16.09613,0.76036 15.71792,3.07922 -10.39542,3.07922c-3.16491,0 -23.36956,-1.02277 -25.78892,-1.01923c-12.92563,0.01893 5.00114,0.33047 2.97681,0.034c-0.72308,-0.1059 -24.47026,-0.12148 -24.47026,-0.49022c0,-0.75946 -11.96322,-1.45043 -4.10982,-1.96582c4.50081,-0.29537 -0.17376,-1.2723 4.60426,-1.8328c4.38668,-0.51458 18.11067,-0.62776 24.65576,-0.62776c12.1771,0 22.85686,0.01121 25.86058,0.57407c3.43764,0.64417 -1.30881,1.87177 6.66701,2.24854z"/></g></g></svg>