<svg version="1.1" xmlns="http://www.w3.org/2000/svg" xmlns:xlink="http://www.w3.org/1999/xlink" width="23.55" height="62.70183" viewBox="0,0,23.55,62.70183"><g transform="translate(-308.225,-148.64908)"><g fill="#ffffff" stroke="#ffffff" stroke-miterlimit="10"><path d="M328.01562,178.65866c4.81709,7.94935 4.7039,32.19226 -3.11104,32.19226c-0.94716,0 -6.99381,-10.6928 -7.71785,-10.65576c-3.86825,0.19788 1.49669,3.455 0.89087,0.35543c-0.2164,-1.10714 -7.32322,-1.27001 -7.32322,-5.12513c0,-7.93995 -3.58023,-15.16377 -1.22995,-20.55203c1.34696,-3.08803 -0.052,-13.30156 1.37792,-19.16132c1.3128,-5.37982 5.41998,-6.56302 7.37873,-6.56302c3.64424,0 6.84037,0.11724 7.7393,6.00177c1.02878,6.73462 -0.39169,19.5688 1.99524,23.5078z"/></g></g></svg>