<svg version="1.1" xmlns="http://www.w3.org/2000/svg" xmlns:xlink="http://www.w3.org/1999/xlink" width="18.5714" height="18.57144" viewBox="0,0,18.5714,18.57144"><g transform="translate(-310.7143,-170.71428)"><g stroke-miterlimit="10"><path d="M311.2143,180c0,-4.85221 3.93349,-8.78572 8.7857,-8.78572c4.85221,0 8.7857,3.93351 8.7857,8.78572c0,4.85221 -3.93349,8.78572 -8.7857,8.78572c-4.85221,0 -8.7857,-3.93351 -8.7857,-8.78572z" fill="none" stroke="#000000"/><path d="M315.60716,180c0,-2.42611 1.96674,-4.39284 4.39284,-4.39284c2.42611,0 4.39284,1.96674 4.39284,4.39284c0,2.42611 -1.96674,4.39284 -4.39284,4.39284c-2.42611,0 -4.39284,-1.96674 -4.39284,-4.39284z" fill="none" stroke="#000000"/><path d="M319.58446,180c0,-0.22949 0.18605,-0.41554 0.41554,-0.41554c0.22949,0 0.41554,0.18605 0.41554,0.41554c0,0.22949 -0.18605,0.41554 -0.41554,0.41554c-0.22949,0 -0.41554,-0.18605 -0.41554,-0.41554z" fill="#000000" stroke="none"/></g></g></svg>