<svg version="1.1" xmlns="http://www.w3.org/2000/svg" xmlns:xlink="http://www.w3.org/1999/xlink" width="76.35" height="62.70183" viewBox="0,0,76.35,62.70183"><g transform="translate(-281.825,-148.64909)"><g fill="#ffffff" stroke="#ffffff" stroke-miterlimit="10"><path d="M346.7839,178.65866c16.09613,7.94935 15.71792,32.19226 -10.39542,32.19226c-3.16491,0 -23.36956,-10.6928 -25.78892,-10.65576c-12.92563,0.19788 5.00114,3.455 2.97681,0.35543c-0.72308,-1.10714 -24.47026,-1.27001 -24.47026,-5.12513c0,-7.93995 -11.96322,-15.16377 -4.10982,-20.55203c4.50081,-3.08803 -0.17376,-13.30156 4.60426,-19.16132c4.38668,-5.37982 18.11067,-6.56302 24.65576,-6.56302c12.1771,0 22.85686,0.11724 25.86058,6.00177c3.43764,6.73462 -1.30881,19.5688 6.66701,23.5078z"/></g></g></svg>