<svg version="1.1" xmlns="http://www.w3.org/2000/svg" xmlns:xlink="http://www.w3.org/1999/xlink" width="796.44038" height="150.31154" viewBox="0,0,796.44038,150.31154"><g transform="translate(156.93791,-209.67529)"><g stroke-width="0" stroke-miterlimit="10"><path d="M0.10857,359.98683v-31h639.3939v31z" fill="#483b00" stroke="none"/><path d="M5.10856,354.98683c0,0 -0.65759,-5.69231 1.3172,-9.91033c1.43901,-3.07363 5.6828,-4.42641 5.6828,-6.83309c0,-4.0147 -7,-10.25659 -7,-10.25659c0,0 211.87151,0.33663 317.18127,0.50395c104.48167,0.166 312.21263,0.49605 312.21263,0.49605c0,0 -14,2.83139 -14,8.25659c0,1.41042 3.62193,4.75918 5.60934,8.01857c1.63034,2.6738 1.50663,5.28745 2.93522,6.72153c2.80792,2.8187 10.45544,8.00332 10.45544,8.00332c0,0 -494.03837,-1.42923 -583.7348,-2.41895c-26.98667,-0.29778 -50.6591,-2.58105 -50.6591,-2.58105z" fill="#626262" stroke="none"/><path d="M-156.93791,219.67529v-10h1.44861v10z" fill="none" stroke="none"/><path d="M143.64114,341c0,3.31371 5.07513,8 -1,8c-6.07513,0 -21,-4.68629 -21,-8c0,-3.31371 5.92487,-4 12,-4c6.07513,0 10,0.68629 10,4z" fill="#525252" stroke="none"/><path d="M358.64114,336.5c0,1.1007 0.7175,12.08272 -5.9785,12.72433c-5.06322,0.48516 -16.5064,-9.22433 -23.5215,-9.22433c-4.13313,0 -4.06774,-1.10085 -7.63855,-1.28293c-10.50499,-0.53567 -21.86145,-0.77445 -21.86145,-2.21707c0,-1.933 13.2076,-3.5 29.5,-3.5c16.2924,0 29.5,1.567 29.5,3.5z" fill="#525252" stroke="#000000"/><path d="M536.64114,351.5c0,1.933 -7.61116,3.5 -17,3.5c-9.38884,0 -17,-1.567 -17,-3.5c0,-1.08268 -2.61225,-6.05054 1.13822,-6.69255c2.94555,-0.50422 11.73167,3.19255 15.86178,3.19255c9.38884,0 17,1.567 17,3.5z" fill="#525252" stroke="#000000"/></g></g></svg>