<svg version="1.1" xmlns="http://www.w3.org/2000/svg" xmlns:xlink="http://www.w3.org/1999/xlink" width="805.44037" height="232.0232" viewBox="0,0,805.44037,232.0232"><g transform="translate(156.93791,-145.96362)"><g stroke-miterlimit="10"><path d="M0.10857,359.98683v-31c0,0 224.3805,-83.75136 333.54696,-115.45835c1.98834,-0.57751 22.01201,-6.16527 24.06892,-6.7627c105.58444,-30.6666 282.77801,-60.77895 282.77801,-60.77895l-1,214z" fill="#483b00" stroke="none" stroke-width="0" stroke-linecap="butt"/><path d="M-156.9379,219.67529v-10h1.44861v10z" fill="none" stroke="none" stroke-width="0" stroke-linecap="butt"/><path d="M14.10857,370.48683c0,0 -0.65759,-8.53846 1.3172,-14.86549c1.43901,-4.61044 5.6828,-6.63961 5.6828,-10.24963c0,-6.02205 -7,-15.38488 -7,-15.38488c0,0 211.87151,0.50494 317.18127,0.75592c10.63464,0.02535 -15.78965,-28.61994 -4.91036,-39.39112c19.74253,-19.54634 77.48483,-28.38654 101.3934,-41.36156c65.99376,-35.81437 140.94267,-40.64573 177.50658,-40.55859c4.6233,0.01102 30.14935,-50.7562 35.54346,-34.03983c11.64737,36.09527 2.67955,156.09517 2.67955,156.09517c0,0 -3,1.24708 -3,9.38488c0,2.11563 -4.37807,9.13877 -2.39066,14.02785c1.63034,4.0107 -1.49337,8.93117 -0.06478,11.08229c2.80792,4.22805 10.45544,12.00498 10.45544,12.00498c0,0 -494.03837,-2.14384 -583.7348,-3.62842c-26.98667,-0.44667 -50.6591,-3.87157 -50.6591,-3.87157z" fill="#626262" stroke="none" stroke-width="0" stroke-linecap="butt"/><path d="M152.64116,349.50659c0,4.97056 5.07513,12 -1,12c-6.07513,0 -21,-7.02943 -21,-12c0,-4.97056 5.92487,-6 12,-6c6.07513,0 10,1.02943 10,6z" fill="#525252" stroke="none" stroke-width="0" stroke-linecap="butt"/><path d="M367.64116,342.75659c0,1.65105 0.7175,18.12408 -5.9785,19.08649c-5.06322,0.72774 -16.5064,-13.83649 -23.5215,-13.83649c-4.13313,0 -4.06774,-1.65127 -7.63855,-1.92439c-10.50499,-0.8035 -21.86145,-1.16167 -21.86145,-3.3256c0,-2.8995 13.2076,-5.25 29.5,-5.25c16.2924,0 29.5,2.3505 29.5,5.25z" fill="#525252" stroke="#000000" stroke-width="0" stroke-linecap="butt"/><path d="M545.64116,365.25659c0,2.8995 -7.61116,5.25 -17,5.25c-9.38884,0 -17,-2.3505 -17,-5.25c0,-1.62402 -2.61225,-9.07581 1.13822,-10.03882c2.94555,-0.75633 11.73167,4.78882 15.86178,4.78882c9.38884,0 17,2.3505 17,5.25z" fill="#525252" stroke="#000000" stroke-width="0" stroke-linecap="butt"/><path d="M537.64116,254.75659c0,1.65105 -6.2825,15.12407 -12.9785,16.08649c-5.06322,0.72774 -13.5064,-5.83649 -20.5215,-5.83649c-4.13313,0 -14.06774,-3.65127 -17.63855,-3.92439c-10.50499,-0.8035 -14.86145,-7.16168 -14.86145,-9.32561c0,-2.8995 13.2076,-5.25 29.5,-5.25c6.32497,0 41.18502,-12.64575 45.98788,-12.04266c7.56878,0.9504 -9.48788,18.51879 -9.48788,20.29266z" fill="#525252" stroke="#000000" stroke-width="0" stroke-linecap="butt"/><path d="M0.11564,327.45655c0,0 428.90169,-161.60634 636.98473,-179.49292" fill="none" stroke="#004e0e" stroke-width="4" stroke-linecap="round"/></g></g></svg>