<svg version="1.1" xmlns="http://www.w3.org/2000/svg" xmlns:xlink="http://www.w3.org/1999/xlink" width="797.44034" height="235.02319" viewBox="0,0,797.44034,235.02319"><g transform="translate(156.93786,-142.96363)"><g stroke-miterlimit="10"><path d="M-156.93786,219.67529v-10h1.44861v10z" fill="none" stroke="none" stroke-width="0" stroke-linecap="butt"/><path d="M1.10859,359.98683l-1,-217c0,0 177.19357,33.11235 282.77801,63.77895c2.05691,0.59743 357.61588,122.22105 357.61588,122.22105v31z" fill="#483b00" stroke="none" stroke-width="0" stroke-linecap="butt"/><path d="M532.41877,374.3584c-79.65946,1.48458 -518.41528,3.62842 -518.41528,3.62842c0,0 6.79177,-7.77693 9.28548,-12.00498c1.26873,-2.15112 1.15886,-6.07159 2.60677,-10.08229c1.76502,-4.88908 4.98166,-9.91222 4.98166,-12.02785c0,-8.1378 -12.43341,-12.38488 -12.43341,-12.38488c0,0 -3.52382,-106.9999 6.82021,-143.09517c4.79051,-16.71637 23.01971,21.05085 27.12567,21.03983c32.47243,-0.08714 99.03461,4.74422 157.64372,40.55859c21.23322,12.97502 72.51419,21.81522 90.04755,41.36156c9.6619,10.77118 -13.80553,39.41647 -4.36089,39.39112c93.52567,-0.25098 240.6889,20.24408 240.6889,20.24408c0,0 37.7833,1.36283 37.7833,7.38488c0,3.61002 0.76891,-7.36081 2.0469,-2.75037c1.75381,6.32703 1.16981,14.86549 1.16981,14.86549c0,0 -21.0235,3.4249 -44.99038,3.87157z" fill="#626262" stroke="none" stroke-width="0" stroke-linecap="butt"/><path d="M519.86479,343.50659c6.07513,0 12,1.02944 12,6c0,4.97057 -14.92487,12 -21,12c-6.07513,0 -1,-7.02944 -1,-12c0,-4.97057 3.92487,-6 10,-6z" fill="#525252" stroke="none" stroke-width="0" stroke-linecap="butt"/><path d="M294.8648,342.7566c0,-2.8995 13.2076,-5.25 29.5,-5.25c16.2924,0 29.5,2.3505 29.5,5.25c0,2.16393 -11.35646,2.5221 -21.86145,3.3256c-3.57081,0.27312 -3.50542,1.92439 -7.63855,1.92439c-7.0151,0 -18.45828,14.56423 -23.5215,13.83649c-6.696,-0.96241 -5.9785,-17.43544 -5.9785,-19.08649z" fill="#525252" stroke="#000000" stroke-width="0" stroke-linecap="butt"/><path d="M133.86478,360.00659c4.13011,0 12.91623,-5.54515 15.86178,-4.78882c3.75047,0.96301 1.13822,8.4148 1.13822,10.03882c0,2.8995 -7.61116,5.25 -17,5.25c-9.38884,0 -17,-2.3505 -17,-5.25c0,-2.8995 7.61116,-5.25 17,-5.25z" fill="#525252" stroke="#000000" stroke-width="0" stroke-linecap="butt"/><path d="M115.37692,234.46393c4.80286,-0.60309 39.66291,12.04266 45.98788,12.04266c16.2924,0 29.5,2.3505 29.5,5.25c0,2.16393 -4.35646,8.52211 -14.86145,9.32561c-3.57081,0.27312 -13.50542,3.92439 -17.63855,3.92439c-7.0151,0 -15.45828,6.56423 -20.5215,5.83649c-6.696,-0.96242 -12.9785,-14.43544 -12.9785,-16.08649c0,-1.77387 -17.05666,-19.34226 -9.48788,-20.29266z" fill="#525252" stroke="#000000" stroke-width="0" stroke-linecap="butt"/><path d="M0.11563,144.96363c209.08304,20.88658 636.98473,182.49293 636.98473,182.49293" fill="none" stroke="#004e0e" stroke-width="4" stroke-linecap="round"/></g></g></svg>