<svg version="1.1" xmlns="http://www.w3.org/2000/svg" xmlns:xlink="http://www.w3.org/1999/xlink" width="806.44033" height="356.10705" viewBox="0,0,806.44033,356.10705"><g transform="translate(156.93786,-8.87977)"><g stroke-miterlimit="10"><path d="M-156.93786,219.67529v-10h1.44861v10z" fill="none" stroke="none" stroke-width="0" stroke-linecap="butt"/><path d="M2.88841,359.98683v-214c0,0 -53.28685,-123.89736 -1.77982,-135c51.50703,-11.10264 221.8185,39.50972 330.24098,64.19832c105.20517,23.95599 310.93275,70.80168 310.93275,70.80168v214z" fill="#483b00" stroke="none" stroke-width="0" stroke-linecap="butt"/><path d="M43.85676,361.3584c-27.79478,-0.44667 -52.17608,-3.87157 -52.17608,-3.87157c0,0 -0.67728,-8.53846 1.35664,-14.86549c1.4821,-4.61044 5.85297,-6.63961 5.85297,-10.24963c0,-6.02205 -7.20961,-15.38488 -7.20961,-15.38488c0,0 0.718,-235.91265 4.70566,-279.78035c1.61993,-17.82061 19.417,14.41003 19.417,14.41003c0,0 217.43645,44.08894 233.55657,44.12624c10.95309,0.02535 17.73753,41.38006 28.9426,30.60888c20.33371,-19.54634 84.8051,85.61346 109.42961,72.63844c67.96993,-35.81437 175.16318,-2.64573 212.82199,-2.55859c4.76174,0.01102 25.90244,-37.7562 31.45808,-21.03983c11.99615,36.09527 7.90951,143.09517 7.90951,143.09517c0,0 9.58077,1.24708 9.58077,9.38488c0,2.11563 -7.26961,12.13877 -5.22269,17.02785c1.67916,4.0107 -0.44826,8.93117 1.02311,11.08229c2.89201,4.22805 -0.23147,9.00498 -0.23147,9.00498c0,0 -508.83229,-2.14384 -601.21467,-3.62842z" fill="#626262" stroke="none" stroke-width="0" stroke-linecap="butt"/><path d="M453.97588,286.50659c6.07513,0 12,1.02944 12,6c0,4.97057 -14.92487,12 -21,12c-6.07513,0 -1,-7.02944 -1,-12c0,-4.97057 3.92487,-6 10,-6z" fill="#525252" stroke="none" stroke-width="0" stroke-linecap="butt"/><path d="M228.97589,285.7566c0,-2.8995 13.2076,-5.25 29.5,-5.25c16.2924,0 29.5,2.3505 29.5,5.25c0,2.16393 -11.35646,2.5221 -21.86145,3.3256c-3.57081,0.27312 -3.50542,1.92439 -7.63855,1.92439c-7.0151,0 -18.45828,14.56423 -23.5215,13.83649c-6.696,-0.96241 -5.9785,-17.43544 -5.9785,-19.08649z" fill="#525252" stroke="#000000" stroke-width="0" stroke-linecap="butt"/><path d="M67.97589,303.00659c4.13011,0 12.91623,-5.54515 15.86178,-4.78882c3.75047,0.96301 1.13822,8.4148 1.13822,10.03882c0,2.8995 -7.61116,5.25 -17,5.25c-9.38884,0 -17,-2.3505 -17,-5.25c0,-2.8995 7.61116,-5.25 17,-5.25z" fill="#525252" stroke="#000000" stroke-width="0" stroke-linecap="butt"/><path d="M49.48801,177.46393c4.80286,-0.60309 39.66291,12.04266 45.98788,12.04266c16.2924,0 29.5,2.3505 29.5,5.25c0,2.16393 -4.35646,8.52211 -14.86145,9.32561c-3.57081,0.27312 -13.50542,3.92439 -17.63855,3.92439c-7.0151,0 -15.45828,6.56423 -20.5215,5.83649c-6.696,-0.96242 -12.9785,-14.43544 -12.9785,-16.08649c0,-1.77387 -17.05666,-19.34226 -9.48788,-20.29266z" fill="#525252" stroke="#000000" stroke-width="0" stroke-linecap="butt"/><path d="M546.97589,217.7566c0,-2.8995 13.2076,-5.25 29.5,-5.25c16.2924,0 29.5,2.3505 29.5,5.25c0,2.16393 24.64354,8.5221 14.13855,9.3256c-3.57081,0.27312 15.49458,47.92439 11.36145,47.92439c-7.0151,0 -81.45828,-15.43577 -86.5215,-16.16351c-6.696,-0.96241 2.0215,-39.43544 2.0215,-41.08649z" fill="#525252" stroke="#000000" stroke-width="0" stroke-linecap="butt"/><path d="M217.97589,147.7566c0,-2.8995 -31.7924,-8.25 -15.5,-8.25c16.2924,0 16.5,-18.6495 16.5,-15.75c0,2.16393 46.64354,26.5221 36.13855,27.3256c-3.57081,0.27312 -3.50542,1.92439 -7.63855,1.92439c-7.0151,0 -18.45828,14.56423 -23.5215,13.83649c-6.696,-0.96241 -5.9785,-17.43544 -5.9785,-19.08649z" fill="#525252" stroke="#000000" stroke-width="0" stroke-linecap="butt"/><path d="M-0.88437,10.96363c64.41222,-1.40765 126.92939,15.18925 187.7203,28.64331c209.35102,46.33295 452.26443,105.84961 452.26443,105.84961" fill="none" stroke="#004e0e" stroke-width="4" stroke-linecap="round"/></g></g></svg>